<svg width="27" height="26" viewBox="0 0 27 26" fill="none" xmlns="http://www.w3.org/2000/svg">
<g id="bell">
<g id="Path">
<path d="M11.2741 5.41667C11.2741 4.22005 12.2442 3.25 13.4408 3.25C14.6374 3.25 15.6074 4.22005 15.6074 5.41667C18.1426 6.61543 19.8093 9.11543 19.9408 11.9167V15.1667C20.1061 16.5325 20.9102 17.7387 22.1074 18.4167H4.77411C5.97132 17.7387 6.77544 16.5325 6.94078 15.1667V11.9167C7.07226 9.11543 8.73892 6.61543 11.2741 5.41667" stroke="#4B465C" stroke-width="2" stroke-linecap="round" stroke-linejoin="round"/>
<path d="M11.2741 5.41667C11.2741 4.22005 12.2442 3.25 13.4408 3.25C14.6374 3.25 15.6074 4.22005 15.6074 5.41667C18.1426 6.61543 19.8093 9.11543 19.9408 11.9167V15.1667C20.1061 16.5325 20.9102 17.7387 22.1074 18.4167H4.77411C5.97132 17.7387 6.77544 16.5325 6.94078 15.1667V11.9167C7.07226 9.11543 8.73892 6.61543 11.2741 5.41667" stroke="white" stroke-opacity="0.2" stroke-width="2" stroke-linecap="round" stroke-linejoin="round"/>
</g>
<g id="Path_2">
<path d="M10.1908 18.4167V19.5001C10.1908 21.295 11.6459 22.7501 13.4408 22.7501C15.2357 22.7501 16.6908 21.295 16.6908 19.5001V18.4167" stroke="#4B465C" stroke-width="2" stroke-linecap="round" stroke-linejoin="round"/>
<path d="M10.1908 18.4167V19.5001C10.1908 21.295 11.6459 22.7501 13.4408 22.7501C15.2357 22.7501 16.6908 21.295 16.6908 19.5001V18.4167" stroke="white" stroke-opacity="0.2" stroke-width="2" stroke-linecap="round" stroke-linejoin="round"/>
</g>
</g>
</svg>
